<svg xmlns="http://www.w3.org/2000/svg" viewBox="290 150 390 440" fill="#ffffff">
  <path d="M613.3,330.6c-2.1,10.4-9,19.4-7.8,30.7,1.9,17.8,26,16.8,25.1-1.7v-91.6c.6-3.5,18.2-10.4,21.6-13.4.4,27.6,2,55.7.9,83.4,0,1.9-.8,3.5-.9,5.2-.3,4.1,1.8,5.8-1.3,10.7-72.2,68.4-135.4,145.9-212.1,209.5-4.6.8-7.5-.7-4.3-5.2,9.7-13.4,25.3-29.2,36.7-41.9,31.3-35.1,64.1-68.9,95.8-103.7,14.6-14.3,12.7-34.2,21.1-50.6,5.7-11.3,16.2-22.5,25.2-31.4Z"/>
  <path d="M537.3,164.7c1,14.6,3.7,29.1,5.2,43.6,4.4,42.7,6.1,85.9,7.7,128.7.8,21.6,4.2,51.6,1.8,72.5-.2,1.7-.5,3-1.7,4.3-9.4,9.3-17.4,20.1-26.3,29.8-1,1.1-2.2,2.8-3.9,2.6v-68.7c0-2,.8-3.9.9-6,1.4-51.7,3.6-104.8,8.6-156.4,1.5-15.6,3.2-34,6.1-49.2s-.6-1.5,1.7-1.3Z"/>
  <path d="M417.2,254.6l21,11.2,1.3,2.4.2,93.2c1.6,17.6,23,15.8,25,.8.9-6.6-1.4-13.5-3.6-19.6s-4.1-7.7-5-10.6.2-1.7,1.3-1.3,11.1,12.4,12.5,14.3c11.5,14.7,18.8,28.4,19.9,47.4.3,4.5,1.1,24.1-2.6,26s-2.3.7-3.5,0l-64.4-64.3c-.6-.9-2.1-4-2.1-4.8v-94.6Z"/>
  <path d="M552,468.8c.3,10.2-.3,20.5,0,30.7s2.3,28.3,2.7,42.3c.2,9.6,1.4,18.5-8.2,23.8-11.7,6.5-26.5.7-28.7-12.8l2.4-47.3,31.9-36.7Z"/>
</svg>
