<svg xmlns="http://www.w3.org/2000/svg" viewBox="45 600 1000 205" fill="#f5f3ef">
  <path d="M491.1,627.7c49.7,5.3,60.1,64.7,14.8,84.8l-17.9,5c3.2.6,7.9,2.6,10.7,4.5,12.7,8.7,25.2,38.3,35.3,52s11.1,12.6,18,17.9c-20.6,6.4-42,4.7-60.4-6.5s-32.1-38.8-47-60.1c-2.2-3.2-5.6-6.2-7.5-8.9s-1.2-.9-.8-2.2c27.3,2,50.8-21.8,42.1-49.4-5.8-18.3-24-25.2-41.7-25.8-2.6,0-4.8,1.8-7.3,0-.7.7,4.3,6.2,4.3,8.2v146.4h-53.6v-165.9h111Z"/>
  <path d="M1034,793.6h-187.5v-18.6c0-2.6,2-9.7,2.8-12.7,8.7-32.7,33.9-55.6,61.9-72.4,3.2,5.2-1.9,7.8-4.5,12.4-13.3,23.9-10.6,54.3,10.1,73.2,17.6,16,52.3,16.1,45.8-14.7l-57.4-133.1h63.5l65.2,165.9Z"/>
  <path d="M309.2,627.7l66.5,165.9h-174.5c-6.4-41.7,17.7-82.2,53.1-102.8,3.3,4.2-1.7,8.7-3.4,13-9,23.2-6.5,53.7,12.1,71.7,17.5,16.9,51.4,15.2,39.1-15.8l-55.9-131.9h63.1Z"/>
  <path d="M112.3,627.7v144.7c0,2.8-2.4,7-4.3,9.1h13.4c3.6,0,15.6-4,19.4-5.6,18.6-7.6,32.4-22.4,46.7-35.8v53.6H57v-165.9h55.3Z"/>
  <rect x="780" y="627.7" width="53.6" height="165.9"/>
  <path d="M636.6,794.4c13.9-10.4,19.3-26.7,23.1-43,7.2-31.4,6.9-74-6.2-103.8-3.6-8.2-8.8-17.3-16.8-21.6-.2-1.4,1.2-.8,2.1-.8,27.6-1.6,58.3,20.5,70.6,44.3,28.5,55.3-9.5,125-72.7,125Z"/>
  <path d="M632.3,625.1l-6.5,4.3c-22.1,28.5-25.2,74.5-20.1,109.2s8.9,43.6,25.8,55.4c-32.6,1.6-64.2-22-76-51.8-21.8-55.1,16.7-117.5,76.9-117.1Z"/>
  <path d="M736.6,754.1c30.3-5.2,33,41.4,3.2,41.1s-26.2-37.1-3.2-41.1Z"/>
  <path d="M667.7,608.7l-11.2-.5-22.1-14.8-23.7,14.9-10.4.4,24.2-29.8c4-.3,18.8-1.5,21.1.4l22,29.4Z"/>
</svg>
